<?xml version="1.0" standalone="no"?>
<!DOCTYPE svg PUBLIC "-//W3C//DTD SVG 20010904//EN"
 "http://www.w3.org/TR/2001/REC-SVG-20010904/DTD/svg10.dtd">
<svg version="1.0" xmlns="http://www.w3.org/2000/svg"
 width="800.000000pt" height="600.000000pt" viewBox="0 0 800.000000 600.000000"
 preserveAspectRatio="xMidYMid meet">

<g transform="translate(0.000000,600.000000) scale(0.100000,-0.100000)"
fill="#000000" stroke="none">
<path d="M2298 4325 c-85 -21 -136 -51 -199 -115 -94 -97 -139 -220 -139 -385
0 -221 85 -382 243 -460 242 -118 544 -39 650 172 47 92 61 159 61 288 1 146
-22 232 -87 327 -49 72 -139 138 -220 164 -72 22 -237 27 -309 9z m231 -171
c67 -20 131 -81 155 -150 36 -102 31 -296 -11 -379 -22 -43 -72 -94 -118 -118
-31 -17 -58 -22 -115 -22 -57 0 -84 5 -115 22 -54 29 -99 78 -127 138 -20 44
-23 65 -23 185 0 128 2 138 28 192 60 123 186 174 326 132z"/>
<path d="M5525 4327 c-80 -21 -143 -56 -198 -111 -96 -95 -138 -210 -139 -381
-2 -164 34 -272 122 -368 103 -113 267 -161 432 -126 74 15 163 65 204 113 41
48 97 159 92 183 -2 12 -32 26 -93 45 -49 15 -90 26 -90 25 -1 -1 -10 -24 -19
-51 -36 -95 -115 -155 -207 -156 -63 0 -146 43 -182 95 -75 109 -73 378 3 486
49 67 161 103 250 79 54 -14 125 -82 135 -129 4 -17 10 -31 13 -31 23 2 184
39 189 44 3 3 -2 26 -11 50 -40 103 -114 178 -214 217 -70 26 -214 34 -287 16z"/>
<path d="M3080 3826 l0 -496 100 0 100 0 0 184 0 183 163 6 c115 3 175 10 208
21 136 49 212 203 179 362 -15 74 -31 104 -77 150 -74 74 -94 78 -400 82
l-273 4 0 -496z m444 314 c91 -21 135 -125 84 -200 -36 -53 -67 -63 -205 -68
l-123 -4 0 141 0 141 103 0 c56 0 120 -5 141 -10z"/>
<path d="M3930 4235 l0 -85 145 0 145 0 0 -410 0 -410 100 0 100 0 0 410 0
410 150 0 150 0 0 85 0 85 -395 0 -395 0 0 -85z"/>
<path d="M4830 3825 l0 -495 100 0 100 0 0 495 0 495 -100 0 -100 0 0 -495z"/>
<path d="M300 2675 c-145 -41 -220 -132 -220 -268 0 -74 33 -151 83 -193 46
-39 136 -77 257 -109 58 -15 122 -34 143 -42 70 -28 95 -89 62 -153 -45 -88
-227 -107 -315 -33 -35 29 -70 91 -70 124 0 20 -3 21 -62 15 -145 -15 -141
-14 -133 -54 39 -211 188 -312 440 -299 122 6 200 33 263 90 62 58 84 107 90
198 6 98 -15 163 -68 218 -60 61 -93 75 -364 152 -97 28 -136 58 -136 103 0
38 22 62 77 82 115 41 242 -6 260 -97 6 -33 10 -33 135 -23 l75 7 -9 51 c-18
101 -83 178 -185 216 -77 29 -243 37 -323 15z"/>
<path d="M1308 2675 c-85 -21 -136 -51 -199 -115 -94 -97 -139 -220 -139 -385
0 -221 85 -382 243 -460 242 -118 544 -39 650 172 47 92 61 159 61 288 1 146
-22 232 -87 327 -49 72 -139 138 -220 164 -72 22 -237 27 -309 9z m231 -171
c67 -20 131 -81 155 -150 36 -102 31 -296 -11 -379 -22 -43 -72 -94 -118 -118
-31 -17 -58 -22 -115 -22 -57 0 -84 5 -115 22 -54 29 -99 78 -127 138 -20 44
-23 65 -23 185 0 128 2 138 28 192 60 123 186 174 326 132z"/>
<path d="M5438 2675 c-85 -21 -136 -51 -199 -115 -94 -97 -139 -220 -139 -385
0 -221 85 -382 243 -460 242 -118 544 -39 650 172 47 92 61 159 61 288 1 146
-22 232 -87 327 -49 72 -139 138 -220 164 -72 22 -237 27 -309 9z m231 -171
c67 -20 131 -81 155 -150 36 -102 31 -296 -11 -379 -22 -43 -72 -94 -118 -118
-31 -17 -58 -22 -115 -22 -57 0 -84 5 -115 22 -54 29 -99 78 -127 138 -20 44
-23 65 -23 185 0 128 2 138 28 192 60 123 186 174 326 132z"/>
<path d="M7420 2675 c-145 -41 -220 -132 -220 -268 0 -74 33 -151 83 -193 46
-39 136 -77 257 -109 58 -15 122 -34 143 -42 70 -28 95 -89 62 -153 -45 -88
-227 -107 -315 -33 -35 29 -70 91 -70 124 0 20 -3 21 -62 15 -145 -15 -141
-14 -133 -54 39 -211 188 -312 440 -299 122 6 200 33 263 90 62 58 84 107 90
198 6 98 -15 163 -68 218 -60 61 -93 75 -364 152 -97 28 -136 58 -136 103 0
38 22 62 77 82 115 41 242 -6 260 -97 6 -33 10 -33 135 -23 l75 7 -9 51 c-18
101 -83 178 -185 216 -77 29 -243 37 -323 15z"/>
<path d="M2080 2175 l0 -495 350 0 350 0 0 85 0 85 -245 0 -245 0 0 410 0 410
-105 0 -105 0 0 -495z"/>
<path d="M2923 2293 c2 -253 7 -390 15 -414 30 -90 116 -173 209 -200 73 -21
284 -19 350 4 76 27 137 77 168 141 36 74 44 174 45 544 l0 302 -99 0 -98 0
-5 -357 c-4 -317 -6 -362 -22 -395 -24 -50 -73 -79 -146 -85 -105 -10 -185 38
-210 125 -6 22 -10 173 -10 375 l0 337 -101 0 -100 0 4 -377z"/>
<path d="M3850 2585 l0 -85 145 0 145 0 0 -410 0 -410 100 0 100 0 0 410 0
410 150 0 150 0 0 85 0 85 -395 0 -395 0 0 -85z"/>
<path d="M4750 2175 l0 -495 100 0 100 0 0 495 0 495 -100 0 -100 0 0 -495z"/>
<path d="M6220 2175 l0 -495 95 0 95 0 2 316 3 317 195 -317 195 -316 102 0
103 0 0 495 0 495 -95 0 -95 0 -2 -325 -3 -326 -199 326 -199 325 -99 0 -98 0
0 -495z"/>
</g>
</svg>
